<svg width="211" height="59" viewBox="0 0 211 59" fill="none" xmlns="http://www.w3.org/2000/svg">
<path d="M68.6529 16.9631C72.8101 16.9631 75.4928 19.3099 75.7339 23.117H72.7498C72.5991 20.9226 71.0618 19.6426 68.6227 19.6426C65.8797 19.6426 64.1013 21.0445 64.1013 23.1982C64.1013 24.9761 65.1061 26.0326 67.1457 26.5203L70.7302 27.3736C74.2871 28.1965 76.0957 30.147 76.0957 33.2557C76.0957 37.2177 73.0512 39.7473 68.4117 39.7473C63.9807 39.7473 61.0267 37.4006 60.8459 33.6214H63.8602C63.9205 35.7244 65.6687 37.0654 68.4117 37.0654C71.3029 37.0654 73.1417 35.6939 73.1417 33.5097C73.1417 31.7725 72.2072 30.6753 70.1274 30.1877L66.5404 29.3648C62.9835 28.5419 61.1448 26.4695 61.1448 23.2998C61.1473 19.5232 64.1616 16.9631 68.6529 16.9631Z" fill="white"/>
<path d="M79.3235 39.3664V16.9631H82.1569V26.7742C83.0913 25.1589 84.8673 24.0618 87.1581 24.0618C90.926 24.0618 92.7345 26.4695 92.7345 30.2791V39.3918H89.9011V30.9191C89.9011 27.9019 88.4844 26.6828 86.3844 26.6828C83.6414 26.6828 82.167 28.6943 82.167 31.2544V39.3664H79.3235Z" fill="white"/>
<path d="M110.7 24.4884V39.3918H108.107L107.856 36.6793C106.851 38.5994 104.962 39.788 102.521 39.788C98.1828 39.788 95.681 36.3745 95.681 31.8334C95.681 27.2923 98.3938 24.0618 102.611 24.0618C104.872 24.0618 107.012 25.098 107.977 27.2314L108.188 24.4884H110.7ZM103.164 26.6828C100.273 26.6828 98.5546 28.8772 98.5546 31.9553C98.5546 35.0335 100.24 37.1974 103.134 37.1974C106.028 37.1974 107.806 35.0335 107.806 31.9553C107.806 28.8772 106.058 26.6828 103.164 26.6828Z" fill="white"/>
<path d="M123.239 26.9875H121.983C119.3 26.9875 117.643 28.6333 117.643 31.4981V39.3917H114.794V24.5188H117.447L117.627 26.7742C118.23 25.2198 119.707 24.1836 121.727 24.1836C122.234 24.1878 122.74 24.2491 123.234 24.3665L123.239 26.9875Z" fill="white"/>
<path d="M124.387 31.9858C124.387 27.4143 127.007 24.0618 131.378 24.0618C133.638 24.0618 135.537 25.0777 136.532 26.8961V16.9631H139.335V39.3918H136.803L136.552 36.6793C135.588 38.7111 133.598 39.7575 131.247 39.7575C126.977 39.7575 124.387 36.5269 124.387 31.9858ZM136.502 31.8944C136.502 28.8467 134.724 26.6523 131.83 26.6523C128.936 26.6523 127.248 28.8467 127.248 31.8944C127.248 34.9421 128.936 37.1669 131.83 37.1669C134.724 37.1669 136.502 35.0031 136.502 31.8944Z" fill="white"/>
<path d="M142.47 31.9553C142.47 27.2923 145.394 24.0618 149.674 24.0618C153.864 24.0618 156.607 26.9876 156.607 31.4068V32.4735L145.213 32.509C145.424 35.6482 147.052 37.3854 149.855 37.3854C152.056 37.3854 153.503 36.471 153.985 34.7643H156.637C155.914 37.9644 153.442 39.7626 149.795 39.7626C145.454 39.7575 142.47 36.5879 142.47 31.9553ZM145.274 30.5839H153.774C153.774 28.1152 152.176 26.4695 149.674 26.4695C147.172 26.4695 145.635 27.9628 145.274 30.5839Z" fill="white"/>
<path d="M172.764 24.4884V39.3918H170.232L169.93 37.1364C169.086 38.6908 167.127 39.7575 164.957 39.7575C161.521 39.7575 159.591 37.4107 159.591 33.7535V24.4884H162.425V32.8087C162.425 36.0088 163.781 37.2279 165.941 37.2279C168.534 37.2279 169.961 35.5516 169.961 32.3515V24.4783L172.764 24.4884Z" fill="white"/>
<path d="M176.863 39.3918V24.4884H179.395L179.667 26.439C180.42 25.037 181.988 24.0618 184.067 24.0618C186.358 24.0618 187.986 25.2199 188.74 27.079C189.433 25.2199 191.211 24.0618 193.512 24.0618C196.888 24.0618 198.938 26.1952 198.938 29.6492V39.4019H196.175V30.3401C196.175 27.9933 194.879 26.6523 192.889 26.6523C190.749 26.6523 189.332 28.1762 189.332 30.5534V39.3918H186.509V30.3096C186.509 27.9628 185.253 26.6828 183.243 26.6828C181.103 26.6828 179.687 28.1762 179.687 30.5534V39.3918H176.863Z" fill="white"/>
<path d="M21.5019 38.0964L16.8624 46.2237H48.4471L43.8076 38.0964H21.5019Z" fill="white"/>
<path d="M32.6547 18.5657L28.0153 10.4385L12.2204 38.0965H21.5019L32.6547 18.5657Z" fill="white"/>
<path d="M43.8076 38.0965H53.0891L37.2942 10.4385L32.6547 18.5657L43.8076 38.0965Z" fill="white"/>
<path d="M32.6548 36.6996C35.4294 36.6996 37.6786 34.4254 37.6786 31.6201C37.6786 28.8147 35.4294 26.5405 32.6548 26.5405C29.8802 26.5405 27.631 28.8147 27.631 31.6201C27.631 34.4254 29.8802 36.6996 32.6548 36.6996Z" fill="white"/>
</svg>
