<svg width="48" height="48" viewBox="0 0 48 48" fill="none" xmlns="http://www.w3.org/2000/svg">
<g filter="url(#filter0_b_9_604)">
<rect width="48" height="48" rx="24" fill="url(#paint0_linear_9_604)"/>
<rect x="0.5" y="0.5" width="47" height="47" rx="23.5" stroke="url(#paint1_linear_9_604)"/>
<path fill-rule="evenodd" clip-rule="evenodd" d="M12 14.4215C12 13.9119 12.2113 13.4232 12.5873 13.0628C12.9633 12.7025 13.4733 12.5 14.0051 12.5H33.9927C34.2563 12.4996 34.5173 12.549 34.7609 12.6454C35.0045 12.7418 35.2258 12.8833 35.4123 13.0618C35.5987 13.2402 35.7466 13.4522 35.8475 13.6856C35.9483 13.9189 36.0001 14.169 36 14.4215V33.5764C36.0003 33.829 35.9486 34.0791 35.8479 34.3126C35.7472 34.546 35.5994 34.7582 35.4131 34.9368C35.2268 35.1155 35.0055 35.2572 34.762 35.3538C34.5184 35.4505 34.2574 35.5001 33.9938 35.5H14.0051C13.7417 35.5 13.4809 35.4503 13.2375 35.3536C12.9942 35.257 12.7731 35.1154 12.5869 34.9368C12.4007 34.7583 12.253 34.5463 12.1523 34.3131C12.0516 34.0798 11.9999 33.8298 12 33.5774V14.4215ZM21.4996 21.2693H24.7495V22.8333C25.2185 21.9342 26.4185 21.125 28.2218 21.125C31.6789 21.125 32.4982 22.9159 32.4982 26.2017V32.2884H28.9996V26.9503C28.9996 25.0789 28.5305 24.023 27.3393 24.023C25.6865 24.023 24.9993 25.1615 24.9993 26.9503V32.2884H21.4996V21.2693ZM15.4996 32.1451H18.9993V21.125H15.4996V32.1441V32.1451ZM19.5 17.5307C19.5066 17.8179 19.4533 18.1034 19.3432 18.3706C19.2331 18.6377 19.0684 18.8811 18.8588 19.0864C18.6492 19.2917 18.3989 19.4549 18.1227 19.5662C17.8464 19.6776 17.5497 19.735 17.25 19.735C16.9503 19.735 16.6536 19.6776 16.3773 19.5662C16.1011 19.4549 15.8508 19.2917 15.6412 19.0864C15.4316 18.8811 15.2669 18.6377 15.1568 18.3706C15.0467 18.1034 14.9934 17.8179 15 17.5307C15.013 16.9671 15.2557 16.4307 15.6762 16.0364C16.0968 15.6422 16.6617 15.4214 17.25 15.4214C17.8383 15.4214 18.4032 15.6422 18.8238 16.0364C19.2443 16.4307 19.487 16.9671 19.5 17.5307Z" fill="white"/>
</g>
<defs>
<filter id="filter0_b_9_604" x="-300" y="-300" width="648" height="648" filterUnits="userSpaceOnUse" color-interpolation-filters="sRGB">
<feFlood flood-opacity="0" result="BackgroundImageFix"/>
<feGaussianBlur in="BackgroundImageFix" stdDeviation="150"/>
<feComposite in2="SourceAlpha" operator="in" result="effect1_backgroundBlur_9_604"/>
<feBlend mode="normal" in="SourceGraphic" in2="effect1_backgroundBlur_9_604" result="shape"/>
</filter>
<linearGradient id="paint0_linear_9_604" x1="22.1327" y1="-113.905" x2="65.2922" y2="-111.659" gradientUnits="userSpaceOnUse">
<stop stop-color="#D9D9D9" stop-opacity="0.07"/>
<stop offset="0.990529" stop-color="#D9D9D9" stop-opacity="0.05"/>
</linearGradient>
<linearGradient id="paint1_linear_9_604" x1="35.051" y1="-30.8571" x2="128.84" y2="28.5493" gradientUnits="userSpaceOnUse">
<stop stop-color="white" stop-opacity="0.21"/>
<stop offset="1" stop-color="white" stop-opacity="0"/>
</linearGradient>
</defs>
</svg>
