<svg width="143" height="35" viewBox="0 0 143 35" fill="none" xmlns="http://www.w3.org/2000/svg">
<path d="M116.307 0H143V7.3204H116.625V27.0537H143V33.7375H116.307C110.968 33.7375 109.633 29.706 109.633 27.6902V6.04729C109.633 1.20946 114.082 0 116.307 0Z" fill="white"/>
<path d="M0 28.6451V0.318359H6.9911V27.0537H33.6844V33.7376H5.08444C1.01689 33.7376 0 30.3426 0 28.6451Z" fill="white"/>
<path d="M36.5444 15.5957V0.318359H43.5355V13.3678H62.9199V0.318359H69.911V28.6451C68.8941 32.2099 65.8858 33.5254 64.5088 33.7376H36.5444V26.7355H62.9199V20.3699H41.6288C38.451 20.3699 36.5444 17.5054 36.5444 15.5957Z" fill="white"/>
<path d="M80.3979 33.7371H73.0891V5.41038C73.0891 2.10028 73.7246 1.27276 74.0424 0.954447C76.3304 -0.827912 79.0209 1.06054 80.0802 2.22756L99.4646 21.3243V0.31789H106.456V30.2361C106.456 34.31 102.642 34.692 101.371 33.7371L80.3979 12.7307V33.7371Z" fill="white"/>
</svg>
