<svg width="48" height="48" viewBox="0 0 48 48" fill="none" xmlns="http://www.w3.org/2000/svg">
<g filter="url(#filter0_b_9_608)">
<rect width="48" height="48" rx="24" fill="url(#paint0_linear_9_608)"/>
<rect x="0.5" y="0.5" width="47" height="47" rx="23.5" stroke="url(#paint1_linear_9_608)"/>
<path d="M35.643 16.9371C34.808 17.3071 33.911 17.5571 32.968 17.6701C33.941 17.0879 34.669 16.1715 35.016 15.0921C34.1019 15.6351 33.1014 16.0173 32.058 16.2221C31.3564 15.4729 30.4271 14.9764 29.4143 14.8096C28.4016 14.6427 27.3621 14.8149 26.4572 15.2993C25.5524 15.7838 24.8328 16.5534 24.4102 17.4888C23.9875 18.4241 23.8855 19.4728 24.12 20.4721C22.2677 20.3791 20.4556 19.8976 18.8014 19.059C17.1472 18.2203 15.6879 17.0432 14.518 15.6041C14.118 16.2941 13.888 17.0941 13.888 17.9461C13.8876 18.7131 14.0764 19.4683 14.4379 20.1448C14.7993 20.8213 15.3222 21.3981 15.96 21.8241C15.2203 21.8005 14.4969 21.6007 13.85 21.2411V21.3011C13.8499 22.3768 14.222 23.4195 14.9032 24.2521C15.5843 25.0847 16.5326 25.656 17.587 25.8691C16.9008 26.0548 16.1813 26.0821 15.483 25.9491C15.7805 26.8747 16.36 27.6841 17.1404 28.264C17.9208 28.8439 18.8629 29.1653 19.835 29.1831C18.1848 30.4785 16.1469 31.1812 14.049 31.1781C13.6774 31.1782 13.3061 31.1565 12.937 31.1131C15.0665 32.4823 17.5454 33.2089 20.077 33.2061C28.647 33.2061 33.332 26.1081 33.332 19.9521C33.332 19.7521 33.327 19.5501 33.318 19.3501C34.2293 18.6911 35.0159 17.875 35.641 16.9401L35.643 16.9371Z" fill="white"/>
</g>
<defs>
<filter id="filter0_b_9_608" x="-300" y="-300" width="648" height="648" filterUnits="userSpaceOnUse" color-interpolation-filters="sRGB">
<feFlood flood-opacity="0" result="BackgroundImageFix"/>
<feGaussianBlur in="BackgroundImageFix" stdDeviation="150"/>
<feComposite in2="SourceAlpha" operator="in" result="effect1_backgroundBlur_9_608"/>
<feBlend mode="normal" in="SourceGraphic" in2="effect1_backgroundBlur_9_608" result="shape"/>
</filter>
<linearGradient id="paint0_linear_9_608" x1="22.1327" y1="-113.905" x2="65.2922" y2="-111.659" gradientUnits="userSpaceOnUse">
<stop stop-color="#D9D9D9" stop-opacity="0.07"/>
<stop offset="0.990529" stop-color="#D9D9D9" stop-opacity="0.05"/>
</linearGradient>
<linearGradient id="paint1_linear_9_608" x1="35.051" y1="-30.8571" x2="128.84" y2="28.5493" gradientUnits="userSpaceOnUse">
<stop stop-color="white" stop-opacity="0.21"/>
<stop offset="1" stop-color="white" stop-opacity="0"/>
</linearGradient>
</defs>
</svg>
