<svg width="48" height="48" viewBox="0 0 48 48" fill="none" xmlns="http://www.w3.org/2000/svg">
<g filter="url(#filter0_b_9_606)">
<rect width="48" height="48" rx="24" fill="url(#paint0_linear_9_606)"/>
<rect x="0.5" y="0.5" width="47" height="47" rx="23.5" stroke="url(#paint1_linear_9_606)"/>
<g clip-path="url(#clip0_9_606)">
<path d="M32.317 16.492C30.787 15.802 29.147 15.292 27.432 15.002C27.4167 14.999 27.4009 15.0009 27.3868 15.0074C27.3726 15.0138 27.3608 15.0245 27.353 15.038C27.143 15.407 26.909 15.888 26.745 16.268C24.9261 15.9962 23.0769 15.9962 21.258 16.268C21.0753 15.8468 20.8693 15.4362 20.641 15.038C20.6333 15.0244 20.6215 15.0134 20.6074 15.0066C20.5933 14.9998 20.5775 14.9975 20.562 15C18.848 15.29 17.208 15.8 15.677 16.491C15.6638 16.4965 15.6527 16.5059 15.645 16.518C12.533 21.093 11.68 25.555 12.099 29.961C12.1002 29.9718 12.1035 29.9822 12.1088 29.9917C12.1142 30.0011 12.1214 30.0094 12.13 30.016C13.9464 31.3384 15.9723 32.3458 18.123 32.996C18.138 33.0006 18.154 33.0006 18.169 32.9959C18.184 32.9913 18.1972 32.9823 18.207 32.97C18.6698 32.351 19.0799 31.6944 19.433 31.007C19.4379 30.9976 19.4407 30.9872 19.4413 30.9766C19.4418 30.9661 19.4401 30.9555 19.4362 30.9456C19.4323 30.9358 19.4264 30.9268 19.4187 30.9195C19.4111 30.9121 19.402 30.9065 19.392 30.903C18.746 30.6597 18.1201 30.3661 17.52 30.025C17.5092 30.0188 17.5001 30.0101 17.4935 29.9995C17.487 29.989 17.4831 29.977 17.4823 29.9646C17.4815 29.9522 17.4838 29.9398 17.489 29.9286C17.4942 29.9173 17.5021 29.9075 17.512 29.9C17.638 29.807 17.764 29.71 17.884 29.613C17.8948 29.6043 17.9078 29.5987 17.9216 29.5969C17.9353 29.5952 17.9493 29.5973 17.962 29.603C21.889 31.367 26.142 31.367 30.023 29.603C30.0357 29.5969 30.0498 29.5946 30.0638 29.5961C30.0778 29.5977 30.091 29.6032 30.102 29.612C30.222 29.71 30.347 29.807 30.474 29.9C30.484 29.9073 30.492 29.917 30.4974 29.9282C30.5027 29.9394 30.5052 29.9517 30.5046 29.9641C30.504 29.9765 30.5004 29.9885 30.494 29.9991C30.4876 30.0098 30.4787 30.0186 30.468 30.025C29.87 30.369 29.248 30.66 28.595 30.902C28.585 30.9056 28.5758 30.9114 28.5682 30.9188C28.5606 30.9263 28.5546 30.9353 28.5507 30.9452C28.5468 30.9551 28.5451 30.9658 28.5457 30.9764C28.5463 30.9871 28.5491 30.9975 28.554 31.007C28.914 31.694 29.326 32.348 29.779 32.969C29.7884 32.9817 29.8015 32.9912 29.8166 32.9963C29.8316 33.0013 29.8478 33.0015 29.863 32.997C32.0173 32.3486 34.0466 31.3407 35.865 30.016C35.8739 30.0098 35.8813 30.0017 35.8868 29.9924C35.8923 29.9831 35.8958 29.9727 35.897 29.962C36.397 24.868 35.059 20.442 32.348 16.52C32.3413 16.5072 32.3303 16.4973 32.317 16.492ZM20.02 27.278C18.838 27.278 17.863 26.209 17.863 24.898C17.863 23.586 18.819 22.518 20.02 22.518C21.23 22.518 22.196 23.595 22.177 24.898C22.177 26.21 21.221 27.278 20.02 27.278ZM27.995 27.278C26.812 27.278 25.838 26.209 25.838 24.898C25.838 23.586 26.793 22.518 27.995 22.518C29.205 22.518 30.171 23.595 30.152 24.898C30.152 26.21 29.206 27.278 27.995 27.278Z" fill="white"/>
</g>
</g>
<defs>
<filter id="filter0_b_9_606" x="-300" y="-300" width="648" height="648" filterUnits="userSpaceOnUse" color-interpolation-filters="sRGB">
<feFlood flood-opacity="0" result="BackgroundImageFix"/>
<feGaussianBlur in="BackgroundImageFix" stdDeviation="150"/>
<feComposite in2="SourceAlpha" operator="in" result="effect1_backgroundBlur_9_606"/>
<feBlend mode="normal" in="SourceGraphic" in2="effect1_backgroundBlur_9_606" result="shape"/>
</filter>
<linearGradient id="paint0_linear_9_606" x1="22.1327" y1="-113.905" x2="65.2922" y2="-111.659" gradientUnits="userSpaceOnUse">
<stop stop-color="#D9D9D9" stop-opacity="0.07"/>
<stop offset="0.990529" stop-color="#D9D9D9" stop-opacity="0.05"/>
</linearGradient>
<linearGradient id="paint1_linear_9_606" x1="35.051" y1="-30.8571" x2="128.84" y2="28.5493" gradientUnits="userSpaceOnUse">
<stop stop-color="white" stop-opacity="0.21"/>
<stop offset="1" stop-color="white" stop-opacity="0"/>
</linearGradient>
<clipPath id="clip0_9_606">
<rect width="24" height="24" fill="white" transform="translate(12 12)"/>
</clipPath>
</defs>
</svg>
